# xmcd CD database file
#
# Track frame offsets:
#	150
#	14801
#	31847
#	49622
#	67462
#	81514
#	93770
#	111810
#	129160
#	145278
#	158607
#	177905
#	192376
#	207616
#	220822
#	238059
#	254770
#	273223
#
# Disc length: 3790 seconds
#
# Revision: 0
# Processed by: cddbd v1.5.2PL0 Copyright (c) Steve Scherf et al.
# Submitted via: CDex 1.70beta2
#
DISCID=0f0ecc12
DTITLE=Various Artist - Award Winning Country Vol 6
DYEAR=2009
DGENRE=Country
TTITLE0=Brooks and Dunn - Play Something Country
TTITLE1=Carrie Underwood - Jesus Take The Wheel
TTITLE2=Kenny Chesney - You Save Me
TTITLE3=Leann Rimes - Something's Gotta Give
TTITLE4=Lee Kernaghan - Listen To The Radio
TTITLE5=Gretchen Wilson - I Don't Feel Like Loving you Today
TTITLE6=Beccy Cole - Poster Girl
TTITLE7=Felicity Urquhart - Big Black Cloud
TTITLE8=Brad Paisley - You Need A Man Around Here
TTITLE9=Martina McBride - I Still Miss Someone
TTITLE10=Carolyn Dawn Johnson - Cry Baby
TTITLE11=Road Hammers - East Bound And Down
TTITLE12=Terri Clark - She Didn't Have Time
TTITLE13=Corb Lund - Hair In My Eyes Like A Highland Steer
TTITLE14=McClymonts - Something That My Heart Does
TTITLE15=George Canyon - Somebody Wrote Love
TTITLE16=Miranda Lambert - Famous In A Small Town
TTITLE17=Tommy Emanuel - Gameshow Rag And Cannon Ball Rag
EXTD=YEAR: 2009
EXTT0=
EXTT1=
EXTT2=
EXTT3=
EXTT4=
EXTT5=
EXTT6=
EXTT7=
EXTT8=
EXTT9=
EXTT10=
EXTT11=
EXTT12=
EXTT13=
EXTT14=
EXTT15=
EXTT16=
EXTT17=
PLAYORDER=
